<svg width="50" height="50" xmlns="http://www.w3.org/2000/svg">
  <g class="layer">
    <title>Layer 1</title>
    <g id="svg_1" transform="rotate(-180 22.1919 25.8278)">
      <path d="m30.67829,46.92253c-0.32329,0 -0.96987,0 -1.29316,-0.32329l-14.87138,-14.87138c-1.61645,-1.61645 -2.26304,-3.5562 -2.26304,-5.81924s0.96987,-4.20278 2.26304,-5.81924l14.87138,-14.87138c0.64658,-0.64658 1.61645,-0.64658 2.26304,0s0.64658,1.61645 0,2.26304l-14.87138,14.87138c-1.93975,1.93975 -1.93975,4.84936 0,6.78911l14.87138,14.87138c0.64658,0.64658 0.64658,1.61645 0,2.26304c0,0.64658 -0.64658,0.64658 -0.96987,0.64658l-0.00001,0z" fill="#f4f4f4" id="svg_2"/>
    </g>
  </g>
</svg>
