
<svg xmlns="http://www.w3.org/2000/svg" viewBox="0 0 32 32" fill="#dadada">
  <path class="phone" d="M21.18,2.92H10.82a2.9,2.9,0,0,0-2.9,2.9V26.18a2.9,2.9,0,0,0,2.9,2.9H21.18a2.9,2.9,0,0,0,2.9-2.9V5.82A2.9,2.9,0,0,0,21.18,2.92Zm.74,23.26a.74.74,0,0,1-.74.74H10.82a.74.74,0,0,1-.74-.74V5.82a.74.74,0,0,1,.74-.74H21.18a.74.74,0,0,1,.74.74Z"/>
  <path class="phone" d="M17,23.92H15a1.08,1.08,0,0,0,0,2.16h2a1.08,1.08,0,0,0,0-2.16Z"/>
<style>
.phone {
  -webkit-animation:spaceboots 3s infinite alternate;
}
@-webkit-keyframes spaceboots {
	0% { -webkit-transform: translate(2px, 0px) rotate(0deg); }
	10% { -webkit-transform: translate(-1px, 0px) rotate(-1deg); }
	20% { -webkit-transform: translate(-3px, 0px) rotate(1deg); }
	30% { -webkit-transform: translate(0px, 0px) rotate(0deg); }
	40% { -webkit-transform: translate(1px, 0px) rotate(1deg); }
	50% { -webkit-transform: translate(-1px, 0px) rotate(-1deg); }
	60% { -webkit-transform: translate(-3px, 0px) rotate(0deg); }
	70% { -webkit-transform: translate(2px, 0px) rotate(-1deg); }
	80% { -webkit-transform: translate(-1px, 0px) rotate(1deg); }
	90% { -webkit-transform: translate(2px, 0px) rotate(0deg); }
	100% { -webkit-transform: translate(1px, 0px) rotate(-1deg); }
}
</style>
</svg>
