<svg width="260" height="100" xmlns="http://www.w3.org/2000/svg">
 <g class="layer">
  <title>Layer 1</title>
  <g id="svg_39">
   <path d="m166.516594,15.24238c0,0 0,6.98412 0,9.52381c0,2.53968 -21.05565,5.12908 -21.37311,17.19257c-0.31746,12.06349 0.35188,11.64276 0.39052,13.75981c0.03864,2.11705 4.74622,6.40849 11.73035,6.72595c6.98412,0.31746 32.89346,0.21419 36.70299,0.21419c3.80952,0 13.85351,-3.74068 13.85351,-7.5502c0,-3.80953 0.7535,-3.0828 0.48576,-14.12125c-0.26774,-11.03844 -21.40371,-14.00266 -21.48786,-15.58615c-0.08415,-1.58349 0.03443,-10.12432 -0.11053,-10.0153c-0.14495,0.10902 -7.50852,-0.04782 -9.46261,0.07649c-1.9541,0.12431 -10.72902,-0.21992 -10.72902,-0.21992z" fill="#FFF2E7" id="svg_40" stroke="#000000" stroke-dasharray="null"     stroke-width="4"/>
   <line fill="none" id="svg_41" stroke="#FFF2E7" stroke-dasharray="null"     stroke-width="6" transform="rotate(-16.6993 176.619 16.0969)" x1="168.705258" x2="184.532013" y1="13.782691" y2="18.411168"/>
   <line fill="none" id="svg_42" stroke="#000000" stroke-dasharray="null" stroke-linecap="round"   stroke-width="4" x1="179.850424" x2="179.850424" y1="14.965532" y2="26.359633"/>
   <line fill="none" id="svg_43" stroke="#000000" stroke-dasharray="null" stroke-linecap="round"   stroke-width="4" x1="172.075625" x2="172.075625" y1="15.09958" y2="26.493682"/>
   <path d="m184.542522,31.420726c0.839737,0.912814 1.440103,1.683509 2.17018,2.217945c0.789047,0.577598 1.622495,1.153838 2.41859,1.659514c0.825801,0.524537 1.860492,0.620044 2.689217,1.109067l0.922123,0.373539l0.803055,0.492841" fill="none" id="svg_44" stroke="#000000" stroke-dasharray="null" stroke-linecap="round"   stroke-width="4"/>
   <polyline fill="none" id="svg_45" points="177.80654907226562,34.60394287109375 177.80654907226562,35.74138641357422 177.80654907226562,36.630218505859375 " stroke="#000000" stroke-dasharray="null" stroke-linecap="round"   stroke-width="4"/>
   <path d="m177.839693,44.724243c0,1.41876 0,2.592398 0.067032,3.799703l0.067017,1.147949l0,1.241982" fill="none" id="svg_46" stroke="#000000" stroke-dasharray="null" stroke-linecap="round"   stroke-width="4"/>
   <path d="m171.117322,26.965925c-1.84007,1.39034 -3.359175,2.359844 -4.844067,3.217619c-1.58032,0.912916 -3.178371,1.825577 -4.474186,3.076217c-1.282424,1.237719 -1.860891,3.08684 -2.981334,4.476226c-1.102556,1.36717 -1.751697,3.167245 -2.703697,4.769398l-1.04415,1.424217l-0.983966,1.370336" fill="none" id="svg_47" stroke="#000000" stroke-dasharray="null" stroke-linecap="round"   stroke-width="4" transform="rotate(-176.421 162.602 36.1329)"/>
  </g>
  <g id="svg_28">
   <path d="m68.374957,16.634055c0,0 0,6.98412 0,9.52381c0,2.53968 -21.05565,5.12908 -21.37311,17.19257c-0.31746,12.06349 0.35188,11.64276 0.39052,13.75981c0.03864,2.11705 4.74622,6.40849 11.73035,6.72595c6.98412,0.31746 32.89346,0.21419 36.70299,0.21419c3.80952,0 13.85351,-3.74068 13.85351,-7.5502c0,-3.80953 0.7535,-3.0828 0.48576,-14.12125c-0.26774,-11.03844 -21.40371,-14.00266 -21.48786,-15.58615c-0.08415,-1.58349 0.03443,-10.12432 -0.11053,-10.0153c-0.14495,0.10902 -7.50852,-0.04782 -9.46261,0.07649c-1.9541,0.12431 -10.72902,-0.21992 -10.72902,-0.21992z" fill="#FFF2E7" id="svg_11" stroke="#000000" stroke-dasharray="null"     stroke-width="4"/>
   <line fill="none" id="svg_13" stroke="#FFF2E7" stroke-dasharray="null"     stroke-width="6" transform="rotate(-16.6993 78.477 17.4886)" x1="70.56362" x2="86.390376" y1="15.174365" y2="19.802843"/>
   <line fill="none" id="svg_12" stroke="#000000" stroke-dasharray="null" stroke-linecap="round"   stroke-width="4" x1="73.841505" x2="73.841505" y1="15.138181" y2="26.383161"/>
   <line fill="none" id="svg_15" stroke="#000000" stroke-dasharray="null" stroke-linecap="round"   stroke-width="4" x1="84.257925" x2="84.257925" y1="14.937737" y2="26.182718"/>
   <path d="m84.12405,25.714167c0,1.004017 0,1.901115 0,2.77874c0,0.900513 0.294586,1.599247 0.535301,2.388954c0.248528,0.815331 0.563324,1.600098 0.963852,2.355911c0.404198,0.762733 0.803391,1.504547 1.381813,2.045227c0.638924,0.597237 1.239517,1.101563 1.905807,1.549934c0.714897,0.481079 1.417778,0.913292 2.174408,1.331032c0.734215,0.405365 1.504265,0.839111 2.302544,1.193398c0.790634,0.350891 1.606956,0.615974 2.46283,0.825882l0.883888,0.152252l0.845512,0.23793l0.787689,0.267914" fill="none" id="svg_18" stroke="#000000" stroke-dasharray="null" stroke-linecap="round"   stroke-width="4"/>
   <path d="m73.68067,26.115775c0.133865,0.84623 0.094681,1.735043 0,2.590004c-0.097481,0.880253 -0.170135,1.724594 -0.497459,2.432217c-0.343285,0.742142 -0.670982,1.419189 -1.173111,2.139763c-0.479797,0.68853 -0.914146,1.456497 -1.408417,2.13353c-0.480522,0.658203 -1.022697,1.249527 -1.681923,1.818993c-0.640823,0.553566 -1.16021,1.224716 -1.820976,1.803833c-0.656082,0.575005 -1.289185,1.12294 -2.039268,1.576439c-0.704956,0.426216 -1.443398,0.896385 -2.157425,1.313164c-0.76545,0.446793 -1.468277,0.952255 -2.122986,1.457741l-0.726456,0.404823l-0.679703,0.431412" fill="none" id="svg_19" stroke="#000000" stroke-dasharray="null" stroke-linecap="round"   stroke-width="4"/>
   <path d="m79.037037,14.98977c0,1.470105 0,2.874875 0,4.332483c0,1.417444 0.072792,2.866282 0,4.304624c-0.067162,1.327029 -0.267738,2.69237 -0.267738,4.136446c0,1.417438 0.059311,2.827719 0.126213,4.179704c0.070526,1.425183 0.133392,2.857744 0.141525,4.283161c0.008118,1.422471 0,2.844106 0,4.265681l0,1.41524" fill="none" id="svg_20" stroke="#000000" stroke-dasharray="null" stroke-linecap="round" stroke-linejoin="bevel" stroke-width="4"/>
   <polyline fill="none" id="svg_22" points="79.46637725830078,49.27888488769531 79.38935089111328,50.35948944091797 " stroke="#000000" stroke-dasharray="null" stroke-linecap="round"   stroke-width="4"/>
   <polyline fill="none" id="svg_24" points="102.38863372802734,45.659584045410156 102.90194702148438,46.540367126464844 " stroke="#000000" stroke-dasharray="null" stroke-linecap="round"   stroke-width="4"/>
  </g>
  <g id="svg_38">
   <path d="m115.789713,14.485503c0,0 0,6.98412 0,9.52381c0,2.53968 -21.05565,5.12908 -21.37311,17.19257c-0.31746,12.06349 0.35188,11.64276 0.39052,13.75981c0.03864,2.11705 4.74622,6.40849 11.73035,6.72595c6.98412,0.31746 32.89346,0.21419 36.70299,0.21419c3.80952,0 13.85351,-3.74068 13.85351,-7.5502c0,-3.80953 0.7535,-3.0828 0.48576,-14.12125c-0.26774,-11.03844 -21.40371,-14.00266 -21.48786,-15.58615c-0.08415,-1.58349 0.03443,-10.12432 -0.11053,-10.0153c-0.14495,0.10902 -7.50852,-0.04782 -9.46261,0.07649c-1.9541,0.12431 -10.72902,-0.21992 -10.72902,-0.21992z" fill="#FFF2E7" id="svg_27" stroke="#000000" stroke-dasharray="null"     stroke-width="4"/>
   <line fill="none" id="svg_26" stroke="#FFF2E7" stroke-dasharray="null"     stroke-width="6" transform="rotate(-16.6993 125.892 15.34)" x1="117.978377" x2="133.805132" y1="13.025813" y2="17.654291"/>
   <line fill="none" id="svg_31" stroke="#000000" stroke-dasharray="null" stroke-linecap="round"   stroke-width="4" x1="129.123543" x2="129.123543" y1="14.208654" y2="25.602756"/>
   <line fill="none" id="svg_32" stroke="#000000" stroke-dasharray="null" stroke-linecap="round"   stroke-width="4" x1="121.348744" x2="121.348744" y1="14.342703" y2="25.736805"/>
   <path d="m135.021671,32.975407c0.727249,0.662025 1.247192,1.220978 1.879471,1.608582c0.68335,0.418907 1.405151,0.83683 2.094604,1.203575c0.715179,0.380424 1.611267,0.449692 2.328979,0.804359l0.798599,0.270912l0.69548,0.357437" fill="none" id="svg_33" stroke="#000000" stroke-dasharray="null" stroke-linecap="round"   stroke-width="4"/>
   <polyline fill="none" id="svg_34" points="128.18519592285156,34.852088928222656 128.18519592285156,35.989532470703125 128.18519592285156,36.87836456298828 " stroke="#000000" stroke-dasharray="null" stroke-linecap="round"   stroke-width="4"/>
   <path d="m127.112812,43.967366c0,1.41876 0,2.592398 0.067032,3.799703l0.067017,1.147949l0,1.241982" fill="none" id="svg_36" stroke="#000000" stroke-dasharray="null" stroke-linecap="round"   stroke-width="4"/>
   <path d="m113.305851,33.243504c-1.203578,0.856889 -2.197215,1.454411 -3.168474,1.983072c-1.033677,0.562645 -2.078952,1.125133 -2.926537,1.895923c-0.838825,0.762826 -1.217197,1.90247 -1.950072,2.758772c-0.721175,0.842609 -1.145774,1.952025 -1.768471,2.939459l-0.682972,0.877769l-0.643606,0.844561" fill="none" id="svg_37" stroke="#000000" stroke-dasharray="null" stroke-linecap="round"   stroke-width="4"/>
  </g>
  <line fill="none" id="svg_1" stroke="#000000" stroke-width="4" x1="18.12551" x2="238.629186" y1="56.958155" y2="56.958155"/>
  <path d="m36.63555,57.13974c0.83682,-1.25523 2.41046,19.9021 20.8205,20.32051c18.41004,0.41841 121.75732,-0.83682 141.00418,-0.83682c19.24687,0 19.66528,-19.24687 19.62345,-19.62343c-0.04182,-0.37656 -182.28495,1.39497 -181.44813,0.13974z" fill="#FFF2E7" id="svg_2" stroke="#000000" stroke-width="4"/>
  <path d="m67.49789,77.86025c0,0 -0.41841,10.46025 10.04184,9.62343c10.46026,-0.83682 89.53975,-0.41841 100,-0.41841c10.46025,0 10.89707,-10.84184 11.25525,-10.41841c0.35817,0.42344 -121.29709,1.21339 -121.29709,1.21339z" fill="#FFF2E7" id="svg_3" stroke="#000000" stroke-dasharray="null" stroke-width="4"/>
 </g>
</svg>
