<svg width="24" height="22" xmlns="http://www.w3.org/2000/svg">
  <g class="layer">
    <title>Layer 1</title>
    <path d="m20.17872,12.20155l-16.05923,0c-1.10909,0 -2.00741,-0.67783 -2.00741,-1.51469l0,0c0,-0.83687 0.89832,-1.51469 2.00741,-1.51469l16.05923,0c1.10909,0 2.00741,0.67783 2.00741,1.51469l0,0c0,0.83687 -0.89832,1.51469 -2.00741,1.51469z" fill="#7f7f7f" id="svg_3" transform="rotate(-55 12.1491 10.6869)"/>
    <path d="m20.19104,12.10487l-16.13136,0c-1.11407,0 -2.01642,-0.64117 -2.01642,-1.43278l0,0c0,-0.79162 0.90235,-1.43278 2.01642,-1.43278l16.13136,0c1.11407,0 2.01642,0.64117 2.01642,1.43278l0,0c0,0.79162 -0.90235,1.43278 -2.01642,1.43278z" fill="#7f7f7f" id="svg_1" transform="rotate(55 12.1254 10.6721)"/>
  </g>
</svg>
