<svg width="24" height="22" xmlns="http://www.w3.org/2000/svg" xmlns:svg="http://www.w3.org/2000/svg">
  <g class="layer">
    <title>Layer 1</title>
    <path d="m20.14517,12.4402l-16.05923,0c-1.10909,0 -2.00741,-0.79514 -2.00741,-1.77684l0,0c0,-0.98171 0.89832,-1.77684 2.00741,-1.77684l16.05923,0c1.10909,0 2.00741,0.79514 2.00741,1.77684l0,0c0,0.98171 -0.89832,1.77684 -2.00741,1.77684z" fill="#7f7f7f" id="svg_3" transform="rotate(-55 12.1156 10.6634)"/>
    <path d="m20.1374,12.48655l-16.13136,0c-1.11407,0 -2.01642,-0.79514 -2.01642,-1.77684l0,0c0,-0.98171 0.90235,-1.77684 2.01642,-1.77684l16.13136,0c1.11407,0 2.01642,0.79514 2.01642,1.77684l0,0c0,0.98171 -0.90235,1.77684 -2.01642,1.77684z" fill="#7f7f7f" id="svg_1" transform="rotate(55 12.0717 10.7097)"/>
  </g>
</svg>
