<svg width="24" height="22" xmlns="http://www.w3.org/2000/svg" xmlns:svg="http://www.w3.org/2000/svg">
  <g class="layer">
    <title>Layer 1</title>
    <path d="m20.74585,12.59789l-17.48143,0c-1.20731,0 -2.18518,-0.79514 -2.18518,-1.77684l0,0c0,-0.98171 0.97787,-1.77684 2.18518,-1.77684l17.48143,0c1.20731,0 2.18518,0.79514 2.18518,1.77684l0,0c0,0.98171 -0.97787,1.77684 -2.18518,1.77684z" fill="black" id="svg_3" opacity="0.4" transform="rotate(-55 12.0051 10.821)"/>
    <path d="m20.84069,12.52689l-17.48143,0c-1.20731,0 -2.18518,-0.79514 -2.18518,-1.77684l0,0c0,-0.98171 0.97787,-1.77684 2.18518,-1.77684l17.48143,0c1.20731,0 2.18518,0.79514 2.18518,1.77684l0,0c0,0.98171 -0.97787,1.77684 -2.18518,1.77684z" fill="black" id="svg_1" opacity="0.4" transform="rotate(55 12.1 10.75)"/>
  </g>
</svg>
